<svg xmlns="http://www.w3.org/2000/svg" width="26" height="26" viewBox="0 0 26 26">
    <g fill="none" fill-rule="evenodd" transform="translate(.75 .75)">
        <circle cx="12.25" cy="12.25" r="12.25" fill="#4B4B4F"/>
        <path fill="#E8E8E8" d="M6.973 10.464c.907-.276 1.848-.421 2.75-.421 1.134 0 2.002.186 3.096.186 1.208 0 2.056-.877 2.056-2.059 0-1.167-.861-2.045-1.976-2.045-.74 0-1.448.463-1.775 1.14-.16.332-.087.691.214.878.307.186.694.069.894-.298.12-.248.387-.428.667-.428.428 0 .735.29.735.753 0 .47-.314.767-.815.767-1 0-1.902-.18-3.097-.18-1.02 0-2.089.173-3.116.47-.367.104-.554.456-.454.816.093.359.427.539.82.421zM17.323 14c1.629 0 2.802-1.105 2.802-2.632 0-1.492-1.104-2.618-2.518-2.618-1.104 0-2.064.753-2.374 1.807-.117.38.028.746.352.868.352.136.731-.05.87-.466.151-.516.634-.868 1.152-.868.703 0 1.235.524 1.235 1.277 0 .774-.6 1.298-1.518 1.298-1.967 0-4.195-1.176-6.824-1.176-1.367 0-2.65.215-3.885.638-.373.13-.566.48-.462.84.103.38.462.573.855.43 1.111-.402 2.236-.574 3.492-.574 2.546 0 4.54 1.176 6.824 1.176zm-4.409 4.375c1.116 0 1.961-.813 1.961-1.911 0-1.586-1.684-2.464-4.659-2.464-1.183 0-2.482.215-3.61.566-.366.117-.555.442-.454.767.102.344.453.52.839.39 1.007-.338 2.103-.514 3.225-.514 2.15 0 3.401.494 3.401 1.255 0 .429-.29.695-.703.695-.338 0-.581-.208-.71-.565-.142-.319-.48-.475-.825-.358-.345.124-.473.494-.324.839.277.76.987 1.3 1.86 1.3z"/>
    </g>
</svg>
