<svg xmlns="http://www.w3.org/2000/svg" width="26" height="26" viewBox="0 0 26 26">
    <g fill="none" fill-rule="evenodd" transform="translate(.75 .75)">
        <circle cx="12.25" cy="12.25" r="12.25" fill="#4B4B4F"/>
        <path fill="#E8E8E8" d="M12.17 8.083c.442 0 .741-.299.741-.753V5.123c0-.455-.299-.748-.741-.748-.443 0-.742.293-.742.748V7.33c0 .454.3.753.742.753zm3.248 10.947c.598 0 1.052-.45 1.052-1.083 0-.323-.095-.676-.275-1.1l-2.715-6.544c-.317-.76-.67-1.233-1.31-1.233-.634 0-.975.455-1.31 1.233l-2.71 6.543c-.18.425-.275.778-.275 1.1 0 .635.449 1.084 1.053 1.084.377 0 .777-.222 1.124-.575l1.98-1.956c.054-.053.09-.077.138-.077.048 0 .09.024.137.077l1.98 1.956c.353.353.748.575 1.13.575zm-1.16-2.572l-1.556-1.412c-.21-.203-.34-.305-.532-.305-.186 0-.317.102-.533.305l-1.549 1.412c-.024.017-.06.035-.084.017-.024-.017-.018-.053-.006-.083l2.094-5.114c.018-.054.036-.078.078-.078.048 0 .06.024.083.078l2.088 5.114c.018.03.018.066-.006.083-.018.018-.048.006-.078-.017z"/>
    </g>
</svg>
