<svg xmlns="http://www.w3.org/2000/svg" width="28" height="28" viewBox="0 0 28 28">
    <g fill="none" fill-rule="evenodd">
        <g transform="translate(1.75 1.75)">
            <circle cx="12.25" cy="12.25" r="12.25" fill="#4B4B4F"/>
            <path fill="#E8E8E8" d="M12.487 15.639c.278 0 .728-.972.728-2.016v-3.3c.966-.305 1.66-1.21 1.66-2.277 0-1.322-1.06-2.394-2.388-2.394-1.322 0-2.383 1.072-2.383 2.394 0 1.061.69 1.967 1.656 2.278v3.299c0 1.038.455 2.016.727 2.016zm-.672-7.448c-.428 0-.81-.384-.81-.822 0-.445.382-.817.81-.817.45 0 .817.372.817.817 0 .438-.367.822-.817.822zm.661 9.908c3.805 0 6.287-1.2 6.287-2.86 0-1.483-2.077-2.56-4.554-2.788v1.388c1.6.156 2.994.672 2.994 1.356 0 .905-1.967 1.5-4.727 1.5-2.76 0-4.727-.59-4.727-1.5 0-.684 1.394-1.2 2.994-1.356v-1.388c-2.483.228-4.554 1.305-4.554 2.788 0 1.66 2.482 2.86 6.287 2.86z"/>
        </g>
    </g>
</svg>
