<svg xmlns="http://www.w3.org/2000/svg" width="32" height="33" viewBox="0 0 32 33">
    <g fill="none" fill-rule="evenodd">
        <path fill="#F1F1F1" d="M15.766 24.445c7.763 0 12.685-6.22 12.685-8.095 0-1.866-4.922-8.096-12.685-8.096-7.637 0-12.666 6.23-12.666 8.096 0 1.875 5.029 8.095 12.666 8.095zm.02-3.34c-2.647 0-4.796-2.177-4.806-4.746 0-2.656 2.159-4.765 4.805-4.765 2.627 0 4.785 2.119 4.785 4.765 0 2.569-2.158 4.746-4.785 4.746zm-.02-2.812c1.084 0 1.953-.87 1.953-1.924 0-1.064-.87-1.953-1.953-1.953-1.075 0-1.934.889-1.934 1.953 0 1.055.86 1.924 1.934 1.924z" transform="translate(0 .476)"/>
    </g>
</svg>
